<svg width="440" height="49" viewBox="0 0 440 49" fill="none" xmlns="http://www.w3.org/2000/svg">
<path d="M35.2305 11.6615C38.6293 11.6615 41.1962 12.5515 42.9313 14.3316C44.6844 16.0936 45.5609 18.9272 45.5609 22.8325V42.6952H37.3503V24.9033C37.3503 22.7236 36.9836 21.0797 36.2502 19.9717C35.5167 18.8636 34.3808 18.3096 32.8425 18.3096C30.678 18.3096 29.1396 19.0998 28.2274 20.6801C27.3151 22.2422 26.8589 24.4855 26.8589 27.41V42.6952H18.6751V24.9033C18.6751 23.4501 18.5141 22.2331 18.1922 21.2522C17.8702 20.2714 17.3782 19.5357 16.7164 19.0453C16.0545 18.5548 15.2049 18.3096 14.1673 18.3096C12.6469 18.3096 11.4484 18.7002 10.5718 19.4812C9.71322 20.2441 9.09608 21.3794 8.72043 22.887C8.36267 24.3765 8.18379 26.202 8.18379 28.3636V42.6952H0V12.2337H6.25188L7.35199 16.1299H7.80814C8.41633 15.0764 9.17657 14.2227 10.0889 13.5687C11.019 12.9148 12.0387 12.4335 13.1477 12.1247C14.2568 11.8159 15.3837 11.6615 16.5286 11.6615C18.7288 11.6615 20.5892 12.0248 22.1096 12.7513C23.648 13.4779 24.8286 14.6041 25.6515 16.1299H26.3759C27.2703 14.5678 28.5315 13.4325 30.1593 12.7241C31.805 12.0157 33.4954 11.6615 35.2305 11.6615Z" fill="black"/>
<path d="M66.2753 11.607C70.3001 11.607 73.3858 12.497 75.5323 14.2772C77.6789 16.0573 78.7522 18.7637 78.7522 22.3966V42.6952H73.0369L71.4538 38.5538H71.2392C70.3806 39.6436 69.5041 40.5337 68.6096 41.2239C67.7152 41.9142 66.6867 42.4228 65.524 42.7497C64.3612 43.0767 62.9481 43.2402 61.2845 43.2402C59.5136 43.2402 57.9215 42.895 56.5084 42.2048C55.1131 41.5145 54.013 40.461 53.208 39.0442C52.4031 37.6092 52.0006 35.7928 52.0006 33.5949C52.0006 30.3617 53.1186 27.9821 55.3546 26.4563C57.5906 24.9124 60.9446 24.0586 65.4166 23.8952L70.6221 23.7317V22.3966C70.6221 20.7981 70.2106 19.6265 69.3878 18.8818C68.5649 18.1371 67.4201 17.7647 65.9533 17.7647C64.5043 17.7647 63.0822 17.9736 61.687 18.3914C60.2917 18.8091 58.8964 19.3359 57.5012 19.9717L54.7911 14.3589C56.3832 13.5052 58.163 12.8331 60.1307 12.3427C62.1163 11.8522 64.1645 11.607 66.2753 11.607ZM70.6221 28.5815L67.4559 28.6905C64.8084 28.7632 62.966 29.2445 61.9285 30.1346C60.9088 31.0246 60.399 32.1962 60.399 33.6494C60.399 34.9209 60.7657 35.8291 61.4991 36.374C62.2326 36.9008 63.1896 37.1642 64.3702 37.1642C66.1232 37.1642 67.599 36.6374 68.7975 35.5839C70.0139 34.5304 70.6221 33.0318 70.6221 31.0882V28.5815Z" fill="black"/>
<path d="M103.948 11.6615C104.359 11.6615 104.833 11.6887 105.37 11.7432C105.924 11.7796 106.371 11.8341 106.711 11.9067L106.094 19.6992C105.826 19.6084 105.441 19.5448 104.94 19.5085C104.457 19.454 104.037 19.4267 103.679 19.4267C102.624 19.4267 101.595 19.563 100.593 19.8354C99.6097 20.1079 98.7242 20.5529 97.9371 21.1705C97.1501 21.7699 96.524 22.5692 96.0589 23.5682C95.6117 24.5491 95.3881 25.757 95.3881 27.192V42.6952H87.2043V12.2337H93.4025L94.6099 17.356H95.0124C95.6027 16.3206 96.3361 15.3761 97.2127 14.5224C98.1071 13.6505 99.1177 12.9602 100.245 12.4516C101.39 11.9249 102.624 11.6615 103.948 11.6615Z" fill="black"/>
<path d="M124.796 36.6193C125.69 36.6193 126.558 36.5284 127.399 36.3468C128.257 36.1652 129.107 35.9381 129.948 35.6656V41.8506C129.071 42.2502 127.98 42.5772 126.674 42.8315C125.386 43.1039 123.973 43.2402 122.435 43.2402C120.646 43.2402 119.036 42.9495 117.605 42.3683C116.192 41.7688 115.074 40.7426 114.251 39.2894C113.446 37.8181 113.044 35.7746 113.044 33.159V18.4731H109.126V14.9583L113.634 12.1792L115.995 5.74901H121.227V12.2337H129.626V18.4731H121.227V33.159C121.227 34.3215 121.549 35.1934 122.193 35.7746C122.855 36.3377 123.723 36.6193 124.796 36.6193Z" fill="black"/>
<path d="M148.328 11.607C152.353 11.607 155.438 12.497 157.585 14.2772C159.731 16.0573 160.805 18.7637 160.805 22.3966V42.6952H155.089L153.506 38.5538H153.292C152.433 39.6436 151.557 40.5337 150.662 41.2239C149.768 41.9142 148.739 42.4228 147.576 42.7497C146.414 43.0767 145.001 43.2402 143.337 43.2402C141.566 43.2402 139.974 42.895 138.561 42.2048C137.166 41.5145 136.066 40.461 135.261 39.0442C134.456 37.6092 134.053 35.7928 134.053 33.5949C134.053 30.3617 135.171 27.9821 137.407 26.4563C139.643 24.9124 142.997 24.0586 147.469 23.8952L152.675 23.7317V22.3966C152.675 20.7981 152.263 19.6265 151.44 18.8818C150.617 18.1371 149.473 17.7647 148.006 17.7647C146.557 17.7647 145.135 17.9736 143.74 18.3914C142.344 18.8091 140.949 19.3359 139.554 19.9717L136.844 14.3589C138.436 13.5052 140.216 12.8331 142.183 12.3427C144.169 11.8522 146.217 11.607 148.328 11.607ZM152.675 28.5815L149.508 28.6905C146.861 28.7632 145.018 29.2445 143.981 30.1346C142.961 31.0246 142.452 32.1962 142.452 33.6494C142.452 34.9209 142.818 35.8291 143.552 36.374C144.285 36.9008 145.242 37.1642 146.423 37.1642C148.176 37.1642 149.652 36.6374 150.85 35.5839C152.066 34.5304 152.675 33.0318 152.675 31.0882V28.5815Z" fill="black"/>
<path d="M213.275 15.367H206.406V42.6952H203.696V15.367H198.276V13.7322L203.696 13.0238V9.75424C203.696 7.57452 204 5.76717 204.609 4.33219C205.235 2.87904 206.174 1.79827 207.426 1.08986C208.696 0.363286 210.297 0 212.229 0C213.231 0 214.134 0.0817394 214.939 0.245218C215.744 0.390533 216.495 0.581258 217.193 0.817394L216.576 3.13334C215.95 2.91537 215.252 2.73373 214.483 2.58841C213.732 2.4431 212.989 2.37044 212.256 2.37044C210.199 2.37044 208.705 2.9517 207.775 4.11422C206.863 5.25857 206.406 7.12949 206.406 9.72699V13.0783H213.275V15.367Z" fill="black"/>
<path d="M230.555 12.5606C231.324 12.5606 232.049 12.606 232.729 12.6969C233.408 12.7877 234.043 12.9148 234.634 13.0783L234.204 15.6122C233.614 15.4487 233.015 15.3307 232.407 15.258C231.798 15.1672 231.146 15.1218 230.448 15.1218C229.071 15.1218 227.836 15.3852 226.745 15.9119C225.672 16.4387 224.76 17.1925 224.008 18.1734C223.257 19.1543 222.685 20.3349 222.291 21.7154C221.897 23.0959 221.701 24.6399 221.701 26.3473V42.6952H218.964V13.0783H221.298L221.566 18.6638H221.727C222.175 17.5195 222.801 16.4932 223.606 15.585C224.429 14.6586 225.421 13.9229 226.584 13.378C227.747 12.8331 229.071 12.5606 230.555 12.5606Z" fill="black"/>
<path d="M264.552 27.8459C264.552 30.1346 264.274 32.2235 263.72 34.1126C263.165 35.9835 262.342 37.6001 261.251 38.9625C260.16 40.3248 258.8 41.3783 257.173 42.123C255.563 42.8678 253.685 43.2402 251.538 43.2402C249.499 43.2402 247.683 42.8769 246.091 42.1503C244.499 41.4056 243.148 40.352 242.039 38.9897C240.948 37.6274 240.116 36.0108 239.544 34.1398C238.972 32.2507 238.685 30.1528 238.685 27.8459C238.685 24.6671 239.204 21.9334 240.242 19.6447C241.297 17.3378 242.8 15.5759 244.749 14.3589C246.717 13.1237 249.069 12.5061 251.806 12.5061C254.633 12.5061 256.985 13.16 258.863 14.4679C260.759 15.7575 262.181 17.5558 263.129 19.8627C264.077 22.1695 264.552 24.8306 264.552 27.8459ZM241.476 27.8459C241.476 30.4434 241.843 32.7139 242.576 34.6575C243.309 36.6011 244.418 38.1178 245.903 39.2077C247.406 40.2975 249.302 40.8425 251.592 40.8425C253.935 40.8425 255.858 40.2975 257.361 39.2077C258.863 38.1178 259.972 36.592 260.688 34.6303C261.403 32.6685 261.761 30.4071 261.761 27.8459C261.761 25.3574 261.421 23.1413 260.741 21.1978C260.062 19.2542 258.988 17.7284 257.521 16.6203C256.055 15.4942 254.141 14.9311 251.779 14.9311C248.399 14.9311 245.832 16.0754 244.079 18.3641C242.343 20.6528 241.476 23.8134 241.476 27.8459Z" fill="black"/>
<path d="M285.454 12.5061C288.727 12.5061 291.241 13.378 292.994 15.1218C294.747 16.8656 295.623 19.5993 295.623 23.323V42.6952H292.94V23.4865C292.94 20.5438 292.278 18.3823 290.954 17.0018C289.631 15.6213 287.708 14.9311 285.185 14.9311C281.983 14.9311 279.533 15.8847 277.833 17.7919C276.152 19.681 275.311 22.5419 275.311 26.3746V42.6952H272.601V13.0783H274.801L275.204 18.4731H275.365C275.884 17.3651 276.59 16.366 277.485 15.476C278.397 14.5678 279.515 13.8503 280.839 13.3235C282.162 12.7786 283.701 12.5061 285.454 12.5061Z" fill="black"/>
<path d="M312.957 40.8697C313.797 40.8697 314.575 40.8061 315.291 40.679C316.024 40.5518 316.668 40.3884 317.223 40.1885V42.4772C316.65 42.6771 315.98 42.8496 315.21 42.9949C314.441 43.1584 313.592 43.2402 312.661 43.2402C311.016 43.2402 309.647 42.9314 308.556 42.3138C307.465 41.678 306.642 40.7244 306.088 39.4529C305.533 38.1632 305.256 36.5284 305.256 34.5485V15.367H300.909V13.7322L305.229 12.8876L306.168 5.91248H307.966V13.0783H317.062V15.367H307.966V34.385C307.966 36.5103 308.35 38.1269 309.12 39.2349C309.907 40.3248 311.186 40.8697 312.957 40.8697Z" fill="black"/>
<path d="M345.611 42.6952H324.172V2.86088H345.611V5.3948H326.936V20.4893H344.565V23.0233H326.936V40.1613H345.611V42.6952Z" fill="black"/>
<path d="M366.701 12.5061C369.975 12.5061 372.488 13.378 374.241 15.1218C375.994 16.8656 376.871 19.5993 376.871 23.323V42.6952H374.187V23.4865C374.187 20.5438 373.526 18.3823 372.202 17.0018C370.878 15.6213 368.955 14.9311 366.433 14.9311C363.231 14.9311 360.78 15.8847 359.081 17.7919C357.399 19.681 356.559 22.5419 356.559 26.3746V42.6952H353.849V13.0783H356.049L356.451 18.4731H356.612C357.131 17.3651 357.838 16.366 358.732 15.476C359.644 14.5678 360.762 13.8503 362.086 13.3235C363.41 12.7786 364.948 12.5061 366.701 12.5061Z" fill="black"/>
<path d="M396.887 43.2402C392.898 43.2402 389.857 41.9686 387.764 39.4256C385.689 36.8645 384.652 33.1408 384.652 28.2546C384.652 23.1323 385.752 19.2269 387.952 16.5386C390.153 13.8503 393.22 12.5061 397.156 12.5061C398.837 12.5061 400.295 12.7695 401.529 13.2963C402.781 13.823 403.828 14.5405 404.669 15.4487C405.527 16.3388 406.189 17.356 406.654 18.5004H406.869C406.797 17.5376 406.744 16.5023 406.708 15.3943C406.672 14.2862 406.654 13.269 406.654 12.3427V0.299711H409.364V42.6952H407.164L406.815 37.2732H406.654C406.171 38.363 405.5 39.3621 404.642 40.2703C403.801 41.1785 402.746 41.9051 401.476 42.45C400.206 42.9768 398.676 43.2402 396.887 43.2402ZM397.183 40.8425C400.617 40.8425 403.059 39.7617 404.508 37.6001C405.957 35.4204 406.681 32.3143 406.681 28.2818V27.8459C406.681 23.6681 405.957 20.4712 404.508 18.2551C403.059 16.0209 400.698 14.9038 397.424 14.9038C394.186 14.9038 391.709 16.0482 389.992 18.3369C388.292 20.6256 387.442 23.9496 387.442 28.3091C387.442 32.4142 388.238 35.5294 389.831 37.6546C391.44 39.7798 393.891 40.8425 397.183 40.8425Z" fill="black"/>
<path d="M190.313 49C188.221 49 186.45 48.6912 185.001 48.0736C183.57 47.4742 182.478 46.5751 181.727 45.3762C180.994 44.1774 180.627 42.697 180.627 40.935V31.9165C180.627 30.4815 180.403 29.319 179.956 28.4289C179.509 27.5207 178.82 26.8668 177.89 26.4672C176.96 26.0494 175.77 25.8405 174.321 25.8405V23.4701C175.77 23.4701 176.96 23.2702 177.89 22.8706C178.82 22.471 179.509 21.8262 179.956 20.9361C180.403 20.0461 180.627 18.8654 180.627 17.3941V8.34826C180.627 6.58632 181.003 5.11501 181.754 3.93433C182.523 2.75365 183.623 1.8636 185.054 1.26418C186.503 0.646592 188.256 0.337799 190.313 0.337799V2.70824C188.757 2.72641 187.46 2.94438 186.423 3.36216C185.385 3.77994 184.607 4.43385 184.088 5.3239C183.57 6.19579 183.31 7.32198 183.31 8.70247V17.6393C183.31 19.5284 182.926 21.0724 182.156 22.2712C181.405 23.4519 180.144 24.2057 178.373 24.5327V24.7506C180.162 25.0594 181.432 25.8133 182.183 27.0121C182.935 28.1928 183.31 29.7367 183.31 31.644V40.7171C183.31 42.0794 183.561 43.1874 184.062 44.0411C184.58 44.913 185.358 45.5488 186.396 45.9484C187.433 46.3662 188.739 46.5841 190.313 46.6023V49Z" fill="#11B3D7"/>
<path d="M424.008 49V46.6023C425.564 46.5841 426.861 46.3662 427.899 45.9484C428.936 45.5306 429.705 44.8858 430.206 44.0139C430.725 43.1602 430.984 42.0612 430.984 40.7171V31.6712C430.984 29.764 431.369 28.22 432.138 27.0393C432.907 25.8405 434.177 25.0867 435.948 24.7779V24.5599C434.177 24.233 432.907 23.4791 432.138 22.2985C431.369 21.0996 430.984 19.5556 430.984 17.6666V8.70247C430.984 7.30381 430.725 6.16854 430.206 5.29666C429.705 4.40661 428.936 3.75269 427.899 3.33491C426.879 2.91713 425.582 2.70824 424.008 2.70824V0.337799C426.101 0.337799 427.863 0.646592 429.294 1.26418C430.743 1.8636 431.843 2.76274 432.594 3.96158C433.346 5.14226 433.721 6.61357 433.721 8.37551V17.3668C433.721 18.8382 433.936 20.0279 434.365 20.9361C434.812 21.8262 435.501 22.471 436.431 22.8706C437.361 23.2702 438.551 23.4701 440 23.4701V25.8405C438.551 25.8405 437.361 26.0494 436.431 26.4672C435.501 26.8668 434.812 27.5116 434.365 28.4017C433.936 29.2917 433.721 30.4542 433.721 31.8892V40.9623C433.721 42.7061 433.337 44.1774 432.567 45.3762C431.798 46.5751 430.689 47.4742 429.24 48.0736C427.809 48.6912 426.065 49 424.008 49Z" fill="#11B3D7"/>
</svg>
