<svg width="220" height="25" viewBox="0 0 220 25" fill="none" xmlns="http://www.w3.org/2000/svg">
<path d="M17.6153 5.74207C19.3146 5.74207 20.5981 6.18033 21.4657 7.05684C22.3422 7.92441 22.7804 9.31968 22.7804 11.2426V21.0229H18.6751V12.2623C18.6751 11.189 18.4918 10.3795 18.1251 9.83396C17.7584 9.28838 17.1904 9.01558 16.4212 9.01558C15.339 9.01558 14.5698 9.40465 14.1137 10.1828C13.6575 10.952 13.4295 12.0566 13.4295 13.4965V21.0229H9.33757V12.2623C9.33757 11.5467 9.25707 10.9475 9.09608 10.4645C8.93509 9.98154 8.68913 9.61931 8.3582 9.37782C8.02727 9.13633 7.60243 9.01558 7.08367 9.01558C6.32343 9.01558 5.72418 9.20788 5.28592 9.59247C4.85661 9.96812 4.54804 10.5271 4.36022 11.2695C4.18133 12.0029 4.09189 12.9018 4.09189 13.9661V21.0229H0V6.0238H3.12594L3.676 7.9423H3.90407C4.20817 7.42355 4.58829 7.00318 5.04443 6.68119C5.50952 6.35921 6.01933 6.12219 6.57386 5.97014C7.12839 5.81809 7.69187 5.74207 8.26428 5.74207C9.3644 5.74207 10.2946 5.92095 11.0548 6.27871C11.824 6.63647 12.4143 7.191 12.8257 7.9423H13.188C13.6352 7.17311 14.2657 6.61411 15.0796 6.26529C15.9025 5.91648 16.7477 5.74207 17.6153 5.74207Z" fill="black"/>
<path d="M33.1376 5.71524C35.15 5.71524 36.6929 6.15349 37.7662 7.03001C38.8395 7.90652 39.3761 9.23918 39.3761 11.028V21.0229H36.5185L35.7269 18.9837H35.6196C35.1903 19.5203 34.752 19.9586 34.3048 20.2985C33.8576 20.6384 33.3433 20.8888 32.762 21.0498C32.1806 21.2108 31.474 21.2913 30.6422 21.2913C29.7568 21.2913 28.9608 21.1213 28.2542 20.7815C27.5566 20.4416 27.0065 19.9228 26.604 19.2252C26.2015 18.5186 26.0003 17.6242 26.0003 16.542C26.0003 14.9499 26.5593 13.7783 27.6773 13.027C28.7953 12.2667 30.4723 11.8464 32.7083 11.7659L35.311 11.6854V11.028C35.311 10.2409 35.1053 9.66403 34.6939 9.29732C34.2825 8.93061 33.7101 8.74726 32.9766 8.74726C32.2522 8.74726 31.5411 8.85012 30.8435 9.05583C30.1459 9.26154 29.4482 9.52092 28.7506 9.83396L27.3956 7.07026C28.1916 6.64989 29.0815 6.31896 30.0654 6.07747C31.0581 5.83598 32.0822 5.71524 33.1376 5.71524ZM35.311 14.0734L33.7279 14.1271C32.4042 14.1629 31.483 14.3999 30.9642 14.8381C30.4544 15.2764 30.1995 15.8533 30.1995 16.5688C30.1995 17.1949 30.3829 17.6421 30.7496 17.9104C31.1163 18.1698 31.5948 18.2995 32.1851 18.2995C33.0616 18.2995 33.7995 18.0401 34.3987 17.5214C35.0069 17.0026 35.311 16.2647 35.311 15.3077V14.0734Z" fill="black"/>
<path d="M51.9738 5.74207C52.1795 5.74207 52.4165 5.75548 52.6848 5.78232C52.9621 5.8002 53.1857 5.82704 53.3556 5.86281L53.047 9.6998C52.9129 9.65508 52.7206 9.62378 52.4702 9.60589C52.2287 9.57906 52.0185 9.56564 51.8396 9.56564C51.3119 9.56564 50.7976 9.63272 50.2968 9.76688C49.8048 9.90104 49.3621 10.1202 48.9686 10.4243C48.575 10.7194 48.262 11.113 48.0294 11.6049C47.8058 12.0879 47.694 12.6826 47.694 13.3892V21.0229H43.6022V6.0238H46.7013L47.305 8.54602H47.5062C47.8014 8.03621 48.1681 7.57112 48.6063 7.15075C49.0535 6.72144 49.5589 6.38157 50.1223 6.13113C50.6948 5.87176 51.3119 5.74207 51.9738 5.74207Z" fill="black"/>
<path d="M62.398 18.0312C62.8452 18.0312 63.279 17.9864 63.6994 17.897C64.1287 17.8076 64.5535 17.6958 64.9739 17.5616V20.607C64.5357 20.8038 63.9901 20.9648 63.3372 21.09C62.6932 21.2242 61.9866 21.2913 61.2174 21.2913C60.323 21.2913 59.5181 21.1482 58.8025 20.862C58.096 20.5668 57.537 20.0615 57.1255 19.3459C56.723 18.6215 56.5218 17.6153 56.5218 16.3273V9.09608H54.5631V7.36541L56.817 5.99697L57.9976 2.83079H60.6137V6.0238H64.8129V9.09608H60.6137V16.3273C60.6137 16.8997 60.7747 17.3291 61.0967 17.6153C61.4276 17.8925 61.8614 18.0312 62.398 18.0312Z" fill="black"/>
<path d="M74.1639 5.71524C76.1763 5.71524 77.7192 6.15349 78.7924 7.03001C79.8657 7.90652 80.4024 9.23918 80.4024 11.028V21.0229H77.5447L76.7532 18.9837H76.6459C76.2166 19.5203 75.7783 19.9586 75.3311 20.2985C74.8839 20.6384 74.3696 20.8888 73.7883 21.0498C73.2069 21.2108 72.5003 21.2913 71.6685 21.2913C70.7831 21.2913 69.987 21.1213 69.2805 20.7815C68.5828 20.4416 68.0328 19.9228 67.6303 19.2252C67.2278 18.5186 67.0266 17.6242 67.0266 16.542C67.0266 14.9499 67.5856 13.7783 68.7036 13.027C69.8216 12.2667 71.4986 11.8464 73.7346 11.7659L76.3373 11.6854V11.028C76.3373 10.2409 76.1316 9.66403 75.7202 9.29732C75.3087 8.93061 74.7363 8.74726 74.0029 8.74726C73.2784 8.74726 72.5674 8.85012 71.8698 9.05583C71.1721 9.26154 70.4745 9.52092 69.7769 9.83396L68.4218 7.07026C69.2179 6.64989 70.1078 6.31896 71.0916 6.07747C72.0844 5.83598 73.1085 5.71524 74.1639 5.71524ZM76.3373 14.0734L74.7542 14.1271C73.4305 14.1629 72.5093 14.3999 71.9905 14.8381C71.4807 15.2764 71.2258 15.8533 71.2258 16.5688C71.2258 17.1949 71.4091 17.6421 71.7758 17.9104C72.1426 18.1698 72.6211 18.2995 73.2114 18.2995C74.0879 18.2995 74.8258 18.0401 75.425 17.5214C76.0332 17.0026 76.3373 16.2647 76.3373 15.3077V14.0734Z" fill="black"/>
<path d="M106.638 7.56665H103.203V21.0229H101.848V7.56665H99.1381V6.76169L101.848 6.41287V4.80294C101.848 3.72966 102 2.83973 102.304 2.13315C102.617 1.41763 103.087 0.885459 103.713 0.536642C104.348 0.178881 105.149 0 106.114 0C106.615 0 107.067 0.0402481 107.47 0.120744C107.872 0.192297 108.248 0.286209 108.596 0.402481L108.288 1.54285C107.975 1.43552 107.626 1.34608 107.241 1.27452C106.866 1.20297 106.495 1.1672 106.128 1.1672C105.099 1.1672 104.353 1.4534 103.887 2.02582C103.431 2.5893 103.203 3.51053 103.203 4.78953V6.4397H106.638V7.56665Z" fill="black"/>
<path d="M115.278 6.1848C115.662 6.1848 116.024 6.20716 116.364 6.25188C116.704 6.2966 117.022 6.35921 117.317 6.4397L117.102 7.68739C116.807 7.6069 116.507 7.54876 116.203 7.51299C115.899 7.46827 115.573 7.44591 115.224 7.44591C114.535 7.44591 113.918 7.57559 113.373 7.83497C112.836 8.09435 112.38 8.46553 112.004 8.9485C111.628 9.43148 111.342 10.0128 111.145 10.6926C110.949 11.3723 110.85 12.1326 110.85 12.9733V21.0229H109.482V6.4397H110.649L110.783 9.18999H110.864C111.087 8.62652 111.4 8.12118 111.803 7.67398C112.214 7.21783 112.711 6.8556 113.292 6.58728C113.873 6.31896 114.535 6.1848 115.278 6.1848Z" fill="black"/>
<path d="M132.276 13.7112C132.276 14.8381 132.137 15.8667 131.86 16.7969C131.583 17.7181 131.171 18.5141 130.626 19.1849C130.08 19.8557 129.4 20.3745 128.586 20.7412C127.781 21.1079 126.842 21.2913 125.769 21.2913C124.749 21.2913 123.842 21.1124 123.046 20.7546C122.25 20.3879 121.574 19.8692 121.02 19.1984C120.474 18.5276 120.058 17.7315 119.772 16.8103C119.486 15.8801 119.343 14.8471 119.343 13.7112C119.343 12.146 119.602 10.7999 120.121 9.67297C120.649 8.53708 121.4 7.66951 122.375 7.07026C123.359 6.46206 124.535 6.15797 125.903 6.15797C127.316 6.15797 128.492 6.47995 129.432 7.12392C130.38 7.75895 131.091 8.64441 131.565 9.7803C132.039 10.9162 132.276 12.2265 132.276 13.7112ZM120.738 13.7112C120.738 14.9902 120.921 16.1082 121.288 17.0652C121.655 18.0222 122.209 18.769 122.952 19.3057C123.703 19.8423 124.651 20.1107 125.796 20.1107C126.967 20.1107 127.929 19.8423 128.68 19.3057C129.432 18.769 129.986 18.0178 130.344 17.0518C130.702 16.0858 130.881 14.9723 130.881 13.7112C130.881 12.4859 130.711 11.3947 130.371 10.4377C130.031 9.48067 129.494 8.72937 128.761 8.18379C128.027 7.62926 127.07 7.35199 125.89 7.35199C124.199 7.35199 122.916 7.91547 122.039 9.04242C121.172 10.1694 120.738 11.7256 120.738 13.7112Z" fill="black"/>
<path d="M142.727 6.15797C144.364 6.15797 145.62 6.58728 146.497 7.44591C147.373 8.30453 147.812 9.65061 147.812 11.4841V21.0229H146.47V11.5646C146.47 10.1157 146.139 9.05136 145.477 8.37161C144.815 7.69187 143.854 7.35199 142.593 7.35199C140.992 7.35199 139.766 7.82155 138.917 8.76068C138.076 9.69086 137.656 11.0995 137.656 12.9867V21.0229H136.301V6.4397H137.401L137.602 9.09608H137.682C137.942 8.55049 138.295 8.05857 138.742 7.62031C139.198 7.17311 139.757 6.81982 140.419 6.56045C141.081 6.29213 141.85 6.15797 142.727 6.15797Z" fill="black"/>
<path d="M156.478 20.1241C156.899 20.1241 157.288 20.0928 157.646 20.0302C158.012 19.9675 158.334 19.8871 158.611 19.7887V20.9156C158.325 21.014 157.99 21.099 157.605 21.1705C157.221 21.251 156.796 21.2913 156.331 21.2913C155.508 21.2913 154.824 21.1392 154.278 20.8351C153.733 20.5221 153.321 20.0525 153.044 19.4264C152.767 18.7914 152.628 17.9864 152.628 17.0115V7.56665H150.455V6.76169L152.614 6.34579L153.084 2.91128H153.983V6.4397H158.531V7.56665H153.983V16.9311C153.983 17.9775 154.175 18.7735 154.56 19.3191C154.953 19.8557 155.593 20.1241 156.478 20.1241Z" fill="black"/>
<path d="M172.806 21.0229H162.086V1.40868H172.806V2.65638H163.468V10.0889H172.282V11.3366H163.468V19.7753H172.806V21.0229Z" fill="black"/>
<path d="M183.351 6.15797C184.987 6.15797 186.244 6.58728 187.121 7.44591C187.997 8.30453 188.435 9.65061 188.435 11.4841V21.0229H187.094V11.5646C187.094 10.1157 186.763 9.05136 186.101 8.37161C185.439 7.69187 184.478 7.35199 183.216 7.35199C181.616 7.35199 180.39 7.82155 179.541 8.76068C178.7 9.69086 178.279 11.0995 178.279 12.9867V21.0229H176.924V6.4397H178.024L178.226 9.09608H178.306C178.566 8.55049 178.919 8.05857 179.366 7.62031C179.822 7.17311 180.381 6.81982 181.043 6.56045C181.705 6.29213 182.474 6.15797 183.351 6.15797Z" fill="black"/>
<path d="M198.444 21.2913C196.449 21.2913 194.929 20.6652 193.882 19.413C192.845 18.1519 192.326 16.3184 192.326 13.9124C192.326 11.3902 192.876 9.46726 193.976 8.14354C195.076 6.81982 196.61 6.15797 198.578 6.15797C199.419 6.15797 200.148 6.28765 200.765 6.54703C201.391 6.80641 201.914 7.1597 202.334 7.6069C202.764 8.04516 203.095 8.54602 203.327 9.1095H203.434C203.399 8.63546 203.372 8.12565 203.354 7.58007C203.336 7.03448 203.327 6.53361 203.327 6.07747V0.147577H204.682V21.0229H203.582L203.408 18.3532H203.327C203.086 18.8898 202.75 19.3817 202.321 19.8289C201.901 20.2761 201.373 20.6339 200.738 20.9022C200.103 21.1616 199.338 21.2913 198.444 21.2913ZM198.591 20.1107C200.309 20.1107 201.529 19.5785 202.254 18.5141C202.978 17.4409 203.341 15.9114 203.341 13.9259V13.7112C203.341 11.6541 202.978 10.0799 202.254 8.98875C201.529 7.88864 200.349 7.33858 198.712 7.33858C197.093 7.33858 195.854 7.90205 194.996 9.029C194.146 10.1559 193.721 11.7927 193.721 13.9393C193.721 15.9606 194.119 17.4945 194.915 18.541C195.72 19.5874 196.946 20.1107 198.591 20.1107Z" fill="black"/>
<path d="M95.1567 24.1274C94.1103 24.1274 93.2248 23.9753 92.5003 23.6712C91.7848 23.3761 91.2392 22.9334 90.8636 22.3431C90.4969 21.7528 90.3135 21.0238 90.3135 20.1562V15.7155C90.3135 15.009 90.2017 14.4365 89.9781 13.9983C89.7545 13.5511 89.4102 13.2291 88.9451 13.0323C88.48 12.8266 87.8852 12.7238 87.1608 12.7238V11.5566C87.8852 11.5566 88.48 11.4582 88.9451 11.2614C89.4102 11.0646 89.7545 10.7471 89.9781 10.3089C90.2017 9.8706 90.3135 9.28924 90.3135 8.56478V4.11065C90.3135 3.24308 90.5013 2.51861 90.877 1.93725C91.2616 1.35589 91.8116 0.917629 92.5272 0.622476C93.2516 0.318379 94.1282 0.16633 95.1567 0.16633V1.33353C94.3786 1.34247 93.7301 1.4498 93.2114 1.65551C92.6926 1.86122 92.3036 2.18321 92.0442 2.62147C91.7848 3.05078 91.6551 3.60531 91.6551 4.28506V8.68552C91.6551 9.6157 91.4628 10.3759 91.0782 10.9662C90.7026 11.5476 90.072 11.9188 89.1866 12.0798V12.1871C90.081 12.3392 90.716 12.7103 91.0917 13.3006C91.4673 13.882 91.6551 14.6422 91.6551 15.5814V20.0489C91.6551 20.7197 91.7803 21.2653 92.0308 21.6857C92.2902 22.115 92.6792 22.428 93.198 22.6248C93.7167 22.8305 94.3696 22.9378 95.1567 22.9468V24.1274Z" fill="#11B3D7"/>
<path d="M212.004 24.1274V22.9468C212.782 22.9378 213.431 22.8305 213.949 22.6248C214.468 22.4191 214.853 22.1016 215.103 21.6723C215.363 21.2519 215.492 20.7108 215.492 20.0489V15.5948C215.492 14.6557 215.685 13.8954 216.069 13.3141C216.454 12.7238 217.089 12.3526 217.974 12.2005V12.0932C217.089 11.9322 216.454 11.561 216.069 10.9797C215.685 10.3894 215.492 9.62912 215.492 8.69894V4.28506C215.492 3.59637 215.363 3.03736 215.103 2.60805C214.853 2.16979 214.468 1.84781 213.949 1.6421C213.44 1.43638 212.791 1.33353 212.004 1.33353V0.16633C213.051 0.16633 213.931 0.318379 214.647 0.622476C215.371 0.917629 215.922 1.36036 216.297 1.95066C216.673 2.53203 216.861 3.25649 216.861 4.12406V8.55136C216.861 9.27583 216.968 9.86166 217.183 10.3089C217.406 10.7471 217.751 11.0646 218.216 11.2614C218.681 11.4582 219.276 11.5566 220 11.5566V12.7238C219.276 12.7238 218.681 12.8266 218.216 13.0323C217.751 13.2291 217.406 13.5466 217.183 13.9849C216.968 14.4231 216.861 14.9955 216.861 15.7021V20.1697C216.861 21.0283 216.668 21.7528 216.284 22.3431C215.899 22.9334 215.345 23.3761 214.62 23.6712C213.905 23.9753 213.033 24.1274 212.004 24.1274Z" fill="#11B3D7"/>
</svg>
