<svg width="256" height="31" viewBox="0 0 256 31" fill="none" xmlns="http://www.w3.org/2000/svg">
<path d="M21.0156 7.20312C22.9948 7.20312 24.4896 7.71354 25.5 8.73438C26.5208 9.74479 27.0312 11.3698 27.0312 13.6094V25H22.25V14.7969C22.25 13.5469 22.0365 12.6042 21.6094 11.9688C21.1823 11.3333 20.5208 11.0156 19.625 11.0156C18.3646 11.0156 17.4688 11.4688 16.9375 12.375C16.4062 13.2708 16.1406 14.5573 16.1406 16.2344V25H11.375V14.7969C11.375 13.9635 11.2812 13.2656 11.0938 12.7031C10.9062 12.1406 10.6198 11.7188 10.2344 11.4375C9.84896 11.1562 9.35417 11.0156 8.75 11.0156C7.86458 11.0156 7.16667 11.2396 6.65625 11.6875C6.15625 12.125 5.79688 12.776 5.57812 13.6406C5.36979 14.4948 5.26562 15.5417 5.26562 16.7812V25H0.5V7.53125H4.14062L4.78125 9.76562H5.04688C5.40104 9.16146 5.84375 8.67188 6.375 8.29688C6.91667 7.92188 7.51042 7.64583 8.15625 7.46875C8.80208 7.29167 9.45833 7.20312 10.125 7.20312C11.4062 7.20312 12.4896 7.41146 13.375 7.82812C14.2708 8.24479 14.9583 8.89062 15.4375 9.76562H15.8594C16.3802 8.86979 17.1146 8.21875 18.0625 7.8125C19.0208 7.40625 20.0052 7.20312 21.0156 7.20312ZM39.0938 7.17188C41.4375 7.17188 43.2344 7.68229 44.4844 8.70312C45.7344 9.72396 46.3594 11.276 46.3594 13.3594V25H43.0312L42.1094 22.625H41.9844C41.4844 23.25 40.974 23.7604 40.4531 24.1562C39.9323 24.5521 39.3333 24.8438 38.6562 25.0312C37.9792 25.2188 37.1562 25.3125 36.1875 25.3125C35.1562 25.3125 34.2292 25.1146 33.4062 24.7188C32.5938 24.3229 31.9531 23.7188 31.4844 22.9062C31.0156 22.0833 30.7812 21.0417 30.7812 19.7812C30.7812 17.9271 31.4323 16.5625 32.7344 15.6875C34.0365 14.8021 35.9896 14.3125 38.5938 14.2188L41.625 14.125V13.3594C41.625 12.4427 41.3854 11.7708 40.9062 11.3438C40.4271 10.9167 39.7604 10.7031 38.9062 10.7031C38.0625 10.7031 37.2344 10.8229 36.4219 11.0625C35.6094 11.3021 34.7969 11.6042 33.9844 11.9688L32.4062 8.75C33.3333 8.26042 34.3698 7.875 35.5156 7.59375C36.6719 7.3125 37.8646 7.17188 39.0938 7.17188ZM41.625 16.9062L39.7812 16.9688C38.2396 17.0104 37.1667 17.2865 36.5625 17.7969C35.9688 18.3073 35.6719 18.9792 35.6719 19.8125C35.6719 20.5417 35.8854 21.0625 36.3125 21.375C36.7396 21.6771 37.2969 21.8281 37.9844 21.8281C39.0052 21.8281 39.8646 21.526 40.5625 20.9219C41.2708 20.3177 41.625 19.4583 41.625 18.3438V16.9062ZM61.0312 7.20312C61.2708 7.20312 61.5469 7.21875 61.8594 7.25C62.1823 7.27083 62.4427 7.30208 62.6406 7.34375L62.2812 11.8125C62.125 11.7604 61.901 11.724 61.6094 11.7031C61.3281 11.6719 61.0833 11.6562 60.875 11.6562C60.2604 11.6562 59.6615 11.7344 59.0781 11.8906C58.5052 12.0469 57.9896 12.3021 57.5312 12.6562C57.0729 13 56.7083 13.4583 56.4375 14.0312C56.1771 14.5938 56.0469 15.2865 56.0469 16.1094V25H51.2812V7.53125H54.8906L55.5938 10.4688H55.8281C56.1719 9.875 56.599 9.33333 57.1094 8.84375C57.6302 8.34375 58.2188 7.94792 58.875 7.65625C59.5417 7.35417 60.2604 7.20312 61.0312 7.20312ZM73.1719 21.5156C73.6927 21.5156 74.1979 21.4635 74.6875 21.3594C75.1875 21.2552 75.6823 21.125 76.1719 20.9688V24.5156C75.6615 24.7448 75.026 24.9323 74.2656 25.0781C73.5156 25.2344 72.6927 25.3125 71.7969 25.3125C70.7552 25.3125 69.8177 25.1458 68.9844 24.8125C68.1615 24.4688 67.5104 23.8802 67.0312 23.0469C66.5625 22.2031 66.3281 21.0312 66.3281 19.5312V11.1094H64.0469V9.09375L66.6719 7.5L68.0469 3.8125H71.0938V7.53125H75.9844V11.1094H71.0938V19.5312C71.0938 20.1979 71.2812 20.6979 71.6562 21.0312C72.0417 21.3542 72.5469 21.5156 73.1719 21.5156ZM86.875 7.17188C89.2188 7.17188 91.0156 7.68229 92.2656 8.70312C93.5156 9.72396 94.1406 11.276 94.1406 13.3594V25H90.8125L89.8906 22.625H89.7656C89.2656 23.25 88.7552 23.7604 88.2344 24.1562C87.7135 24.5521 87.1146 24.8438 86.4375 25.0312C85.7604 25.2188 84.9375 25.3125 83.9688 25.3125C82.9375 25.3125 82.0104 25.1146 81.1875 24.7188C80.375 24.3229 79.7344 23.7188 79.2656 22.9062C78.7969 22.0833 78.5625 21.0417 78.5625 19.7812C78.5625 17.9271 79.2135 16.5625 80.5156 15.6875C81.8177 14.8021 83.7708 14.3125 86.375 14.2188L89.4062 14.125V13.3594C89.4062 12.4427 89.1667 11.7708 88.6875 11.3438C88.2083 10.9167 87.5417 10.7031 86.6875 10.7031C85.8438 10.7031 85.0156 10.8229 84.2031 11.0625C83.3906 11.3021 82.5781 11.6042 81.7656 11.9688L80.1875 8.75C81.1146 8.26042 82.151 7.875 83.2969 7.59375C84.4531 7.3125 85.6458 7.17188 86.875 7.17188ZM89.4062 16.9062L87.5625 16.9688C86.0208 17.0104 84.9479 17.2865 84.3438 17.7969C83.75 18.3073 83.4531 18.9792 83.4531 19.8125C83.4531 20.5417 83.6667 21.0625 84.0938 21.375C84.5208 21.6771 85.0781 21.8281 85.7656 21.8281C86.7865 21.8281 87.6458 21.526 88.3438 20.9219C89.0521 20.3177 89.4062 19.4583 89.4062 18.3438V16.9062ZM124.696 9.32812H120.696V25H119.118V9.32812H115.961V8.39062L119.118 7.98438V6.10938C119.118 4.85938 119.295 3.82292 119.649 3C120.013 2.16667 120.56 1.54688 121.289 1.14062C122.029 0.723958 122.961 0.515625 124.086 0.515625C124.67 0.515625 125.196 0.5625 125.664 0.65625C126.133 0.739583 126.571 0.848958 126.977 0.984375L126.618 2.3125C126.253 2.1875 125.847 2.08333 125.399 2C124.961 1.91667 124.529 1.875 124.102 1.875C122.904 1.875 122.034 2.20833 121.493 2.875C120.961 3.53125 120.696 4.60417 120.696 6.09375V8.01562H124.696V9.32812ZM134.758 7.71875C135.206 7.71875 135.628 7.74479 136.024 7.79688C136.42 7.84896 136.789 7.92188 137.133 8.01562L136.883 9.46875C136.539 9.375 136.19 9.30729 135.836 9.26562C135.482 9.21354 135.102 9.1875 134.696 9.1875C133.894 9.1875 133.175 9.33854 132.539 9.64062C131.914 9.94271 131.383 10.375 130.946 10.9375C130.508 11.5 130.175 12.1771 129.946 12.9688C129.716 13.7604 129.602 14.6458 129.602 15.625V25H128.008V8.01562H129.368L129.524 11.2188H129.618C129.878 10.5625 130.243 9.97396 130.711 9.45312C131.19 8.92188 131.769 8.5 132.446 8.1875C133.123 7.875 133.894 7.71875 134.758 7.71875ZM154.555 16.4844C154.555 17.7969 154.394 18.9948 154.071 20.0781C153.748 21.151 153.269 22.0781 152.633 22.8594C151.998 23.6406 151.206 24.2448 150.258 24.6719C149.321 25.099 148.227 25.3125 146.977 25.3125C145.789 25.3125 144.732 25.1042 143.805 24.6875C142.878 24.2604 142.091 23.6562 141.446 22.875C140.81 22.0938 140.326 21.1667 139.992 20.0938C139.659 19.0104 139.492 17.8073 139.492 16.4844C139.492 14.6615 139.795 13.0938 140.399 11.7812C141.013 10.4583 141.888 9.44792 143.024 8.75C144.17 8.04167 145.539 7.6875 147.133 7.6875C148.779 7.6875 150.149 8.0625 151.242 8.8125C152.347 9.55208 153.175 10.5833 153.727 11.9062C154.279 13.2292 154.555 14.7552 154.555 16.4844ZM141.117 16.4844C141.117 17.974 141.331 19.276 141.758 20.3906C142.185 21.5052 142.831 22.375 143.696 23C144.571 23.625 145.675 23.9375 147.008 23.9375C148.373 23.9375 149.492 23.625 150.367 23C151.242 22.375 151.888 21.5 152.305 20.375C152.722 19.25 152.93 17.9531 152.93 16.4844C152.93 15.0573 152.732 13.7865 152.336 12.6719C151.94 11.5573 151.315 10.6823 150.461 10.0469C149.607 9.40104 148.492 9.07812 147.117 9.07812C145.149 9.07812 143.654 9.73438 142.633 11.0469C141.623 12.3594 141.117 14.1719 141.117 16.4844ZM166.727 7.6875C168.633 7.6875 170.097 8.1875 171.117 9.1875C172.138 10.1875 172.649 11.7552 172.649 13.8906V25H171.086V13.9844C171.086 12.2969 170.701 11.0573 169.93 10.2656C169.159 9.47396 168.039 9.07812 166.571 9.07812C164.706 9.07812 163.279 9.625 162.289 10.7188C161.31 11.8021 160.821 13.4427 160.821 15.6406V25H159.242V8.01562H160.524L160.758 11.1094H160.852C161.154 10.474 161.565 9.90104 162.086 9.39062C162.617 8.86979 163.269 8.45833 164.039 8.15625C164.81 7.84375 165.706 7.6875 166.727 7.6875ZM182.742 23.9531C183.232 23.9531 183.685 23.9167 184.102 23.8438C184.529 23.7708 184.904 23.6771 185.227 23.5625V24.875C184.894 24.9896 184.503 25.0885 184.055 25.1719C183.607 25.2656 183.112 25.3125 182.571 25.3125C181.612 25.3125 180.815 25.1354 180.18 24.7812C179.545 24.4167 179.065 23.8698 178.742 23.1406C178.42 22.401 178.258 21.4635 178.258 20.3281V9.32812H175.727V8.39062L178.242 7.90625L178.789 3.90625H179.836V8.01562H185.133V9.32812H179.836V20.2344C179.836 21.4531 180.06 22.3802 180.508 23.0156C180.966 23.6406 181.711 23.9531 182.742 23.9531ZM201.758 25H189.274V2.15625H201.758V3.60938H190.883V12.2656H201.149V13.7188H190.883V23.5469H201.758V25ZM214.039 7.6875C215.946 7.6875 217.409 8.1875 218.43 9.1875C219.451 10.1875 219.961 11.7552 219.961 13.8906V25H218.399V13.9844C218.399 12.2969 218.013 11.0573 217.242 10.2656C216.472 9.47396 215.352 9.07812 213.883 9.07812C212.019 9.07812 210.591 9.625 209.602 10.7188C208.623 11.8021 208.133 13.4427 208.133 15.6406V25H206.555V8.01562H207.836L208.071 11.1094H208.164C208.466 10.474 208.878 9.90104 209.399 9.39062C209.93 8.86979 210.581 8.45833 211.352 8.15625C212.123 7.84375 213.019 7.6875 214.039 7.6875ZM231.617 25.3125C229.295 25.3125 227.524 24.5833 226.305 23.125C225.097 21.6562 224.492 19.5208 224.492 16.7188C224.492 13.7812 225.133 11.5417 226.414 10C227.696 8.45833 229.482 7.6875 231.774 7.6875C232.753 7.6875 233.602 7.83854 234.321 8.14062C235.05 8.44271 235.659 8.85417 236.149 9.375C236.649 9.88542 237.034 10.4688 237.305 11.125H237.43C237.388 10.5729 237.357 9.97917 237.336 9.34375C237.315 8.70833 237.305 8.125 237.305 7.59375V0.6875H238.883V25H237.602L237.399 21.8906H237.305C237.024 22.5156 236.633 23.0885 236.133 23.6094C235.644 24.1302 235.029 24.5469 234.289 24.8594C233.55 25.1615 232.659 25.3125 231.617 25.3125ZM231.789 23.9375C233.789 23.9375 235.211 23.3177 236.055 22.0781C236.899 20.8281 237.321 19.0469 237.321 16.7344V16.4844C237.321 14.0885 236.899 12.2552 236.055 10.9844C235.211 9.70312 233.836 9.0625 231.93 9.0625C230.045 9.0625 228.602 9.71875 227.602 11.0312C226.612 12.3438 226.117 14.25 226.117 16.75C226.117 19.1042 226.581 20.8906 227.508 22.1094C228.446 23.3281 229.873 23.9375 231.789 23.9375Z" fill="black"/>
<path d="M110.574 30.0625C109.356 30.0625 108.324 29.8854 107.481 29.5312C106.647 29.1875 106.012 28.6719 105.574 27.9844C105.147 27.2969 104.934 26.4479 104.934 25.4375V20.2656C104.934 19.4427 104.804 18.776 104.543 18.2656C104.283 17.7448 103.882 17.3698 103.34 17.1406C102.798 16.901 102.106 16.7812 101.262 16.7812V15.4219C102.106 15.4219 102.798 15.3073 103.34 15.0781C103.882 14.849 104.283 14.4792 104.543 13.9688C104.804 13.4583 104.934 12.7812 104.934 11.9375V6.75C104.934 5.73958 105.152 4.89583 105.59 4.21875C106.038 3.54167 106.679 3.03125 107.512 2.6875C108.356 2.33333 109.376 2.15625 110.574 2.15625V3.51562C109.668 3.52604 108.913 3.65104 108.309 3.89062C107.705 4.13021 107.251 4.50521 106.949 5.01562C106.647 5.51562 106.496 6.16146 106.496 6.95312V12.0781C106.496 13.1615 106.272 14.0469 105.824 14.7344C105.387 15.4115 104.652 15.8438 103.621 16.0312V16.1562C104.663 16.3333 105.402 16.7656 105.84 17.4531C106.277 18.1302 106.496 19.0156 106.496 20.1094V25.3125C106.496 26.0938 106.642 26.7292 106.934 27.2188C107.236 27.7188 107.689 28.0833 108.293 28.3125C108.897 28.5521 109.658 28.6771 110.574 28.6875V30.0625ZM246.661 30.0625V28.6875C247.567 28.6771 248.322 28.5521 248.926 28.3125C249.53 28.0729 249.978 27.7031 250.27 27.2031C250.572 26.7135 250.723 26.0833 250.723 25.3125V20.125C250.723 19.0312 250.947 18.1458 251.395 17.4688C251.843 16.7812 252.583 16.349 253.614 16.1719V16.0469C252.583 15.8594 251.843 15.4271 251.395 14.75C250.947 14.0625 250.723 13.1771 250.723 12.0938V6.95312C250.723 6.15104 250.572 5.5 250.27 5C249.978 4.48958 249.53 4.11458 248.926 3.875C248.333 3.63542 247.577 3.51562 246.661 3.51562V2.15625C247.879 2.15625 248.905 2.33333 249.739 2.6875C250.583 3.03125 251.223 3.54688 251.661 4.23438C252.098 4.91146 252.317 5.75521 252.317 6.76562V11.9219C252.317 12.7656 252.442 13.4479 252.692 13.9688C252.952 14.4792 253.353 14.849 253.895 15.0781C254.437 15.3073 255.129 15.4219 255.973 15.4219V16.7812C255.129 16.7812 254.437 16.901 253.895 17.1406C253.353 17.3698 252.952 17.7396 252.692 18.25C252.442 18.7604 252.317 19.4271 252.317 20.25V25.4531C252.317 26.4531 252.093 27.2969 251.645 27.9844C251.197 28.6719 250.551 29.1875 249.708 29.5312C248.874 29.8854 247.859 30.0625 246.661 30.0625Z" fill="#11B3D7"/>
</svg>
